<svg xmlns="http://www.w3.org/2000/svg" version="1.1" xmlns:xlink="http://www.w3.org/1999/xlink" xmlns:svgjs="http://svgjs.com/svgjs" width="1440" height="560" preserveAspectRatio="none" viewBox="0 0 1440 560">
    <g mask="url(&quot;#SvgjsMask1009&quot;)" fill="none">
        <rect width="1440" height="560" x="0" y="0" fill="#111827"></rect>
        <path d="M0,381.774C70.979,388.476,143.479,351.725,193.209,300.638C239.255,253.336,228.242,176.78,257.265,117.489C287.478,55.767,366.265,16.077,366.138,-52.643C366.011,-121.365,303.067,-171.712,256.637,-222.377C211.371,-271.772,165.945,-327.868,100.553,-342.452C36.362,-356.768,-27.972,-326.401,-87.856,-299.209C-141.2,-274.987,-182.161,-234.979,-224.745,-194.743C-272.17,-149.933,-335.653,-113.872,-351.101,-50.481C-366.854,14.162,-339.164,82.032,-306.289,139.878C-275.181,194.614,-220.509,227.218,-171.101,266.238C-115.978,309.772,-69.93,375.171,0,381.774" fill="#0a1f34"></path>
    </g>
    <defs>
        <mask id="SvgjsMask1009">
            <rect width="1440" height="560" fill="#ffffff"></rect>
        </mask>
    </defs>
</svg>
