<svg xmlns="http://www.w3.org/2000/svg" version="1.1" xmlns:xlink="http://www.w3.org/1999/xlink" xmlns:svgjs="http://svgjs.com/svgjs" width="1440" height="560" preserveAspectRatio="none" viewBox="0 0 1440 560">
    <g mask="url(&quot;#SvgjsMask1042&quot;)" fill="none">
        <path d="M457.46 612.68C571.72 585.66 535.63 280.63 788.68 279.74 1041.73 278.85 1281.85 418.98 1451.12 419.74" stroke="rgba(51,121,194,0.58)" stroke-width="2"></path>
        <path d="M318.09 601.14C512.73 581.43 639.99 164.59 967.3 164.24 1294.61 163.89 1440.92 427.8 1616.51 433.04" stroke="rgba(51,121,194,0.58)" stroke-width="2"></path>
        <path d="M700.47 609.27C846.66 578.08 876.88 220.25 1133.3 196.76 1389.72 173.27 1451.98 53.09 1566.13 51.16" stroke="rgba(51,121,194,0.58)" stroke-width="2"></path>
        <path d="M694.01 597.11C850.1 542.5 885.62 86.03 1107.1 80.47 1328.58 74.91 1405.99 271.58 1520.19 276.47" stroke="rgba(51,121,194,0.58)" stroke-width="2"></path>
        <path d="M887.23 610.81C1010.14 588.28 1036.45 303.31 1261.83 279.86 1487.21 256.41 1532.71 105.19 1636.43 100.66" stroke="rgba(51,121,194,0.58)" stroke-width="2"></path>
    </g>
    <defs>
        <mask id="SvgjsMask1042">
            <rect width="1440" height="560" fill="#ffffff"></rect>
        </mask>
    </defs>
</svg>
