<svg xmlns="http://www.w3.org/2000/svg" version="1.1" xmlns:xlink="http://www.w3.org/1999/xlink" xmlns:svgjs="http://svgjs.com/svgjs" width="1440" height="560" preserveAspectRatio="none" viewBox="0 0 1440 560">
    <g mask="url(&quot;#SvgjsMask1004&quot;)" fill="none">
        <path d="M -150.3968322126292,364 C -54.4,315.8 137.6,134.2 329.6031677873708,123 C 521.6,111.8 617.6,295.6 809.6031677873708,308 C 1001.6,320.4 1097.6,174.6 1289.6031677873707,185 C 1481.6,195.4 1739.52,356.2 1769.6031677873707,360 C 1799.68,363.8 1505.92,235.2 1440,204" stroke="rgba(51, 121, 194, 0.58)" stroke-width="2"></path>
        <path d="M -252.69013303377062,92 C -156.69,131.8 35.31,261 227.30986696622938,291 C 419.31,321 515.31,235.4 707.3098669662294,242 C 899.31,248.6 995.31,353.4 1187.3098669662295,324 C 1379.31,294.6 1616.77,93.8 1667.3098669662295,95 C 1717.85,96.2 1485.46,283 1440,330" stroke="rgba(51, 121, 194, 0.58)" stroke-width="2"></path>
        <path d="M -887.0448074519571,492 C -791.04,432.4 -599.04,213.6 -407.0448074519571,194 C -215.04,174.4 -119.04,383.2 72.95519254804287,394 C 264.96,404.8 360.96,242.4 552.9551925480429,248 C 744.96,253.6 855.55,417 1032.9551925480428,422 C 1210.36,427 1358.59,302.8 1440,273" stroke="rgba(51, 121, 194, 0.58)" stroke-width="2"></path>
    </g>
    <defs>
        <mask id="SvgjsMask1004">
            <rect width="1440" height="560" fill="#ffffff"></rect>
        </mask>
    </defs>
</svg>
